<svg id="Layer_2" enable-background="new 0 0 64 64" height="25" viewBox="0 0 64 64" width="25" xmlns="http://www.w3.org/2000/svg"><path d="m29.999 49.426-8.605.028c-2.029.007-3.67 1.659-3.662 3.691.007 2.03 1.66 3.673 3.689 3.664l8.578-.028z" fill="#f9dd9d"/><path d="m19.481 53.146c-.009-2.032 1.633-3.685 3.664-3.691h-1.752c-2.029.007-3.67 1.659-3.662 3.691.007 2.03 1.66 3.673 3.689 3.664l1.668-.009c-1.989-.036-3.6-1.654-3.607-3.655z" fill="#ffeecf"/><path d="m49.823 7.498-5.023-.74-3.4 23.094 5.024.739c6.378.94 12.308-3.469 13.248-9.847.938-6.377-3.472-12.307-9.849-13.246z" fill="#efc36a"/><path d="m48.132 31.217c-.589 0-1.183-.042-1.782-.131l-5.023-.739c-.131-.019-.249-.09-.328-.196s-.112-.24-.094-.371l3.4-23.094c.041-.273.292-.465.568-.422l5.023.739c6.641.978 11.247 7.175 10.27 13.814-.891 6.041-6.102 10.4-12.034 10.4zm-6.165-1.787 4.529.667c2.951.434 5.896-.306 8.292-2.086 2.395-1.78 3.953-4.386 4.388-7.339.898-6.094-3.33-11.782-9.426-12.68l-4.528-.667z" fill="#63312d"/><path d="m21.404 57.31c-1.108 0-2.151-.43-2.938-1.212-.792-.787-1.23-1.834-1.234-2.95s.426-2.167 1.212-2.959 1.833-1.23 2.948-1.234l8.605-.028c.159.023.261.052.354.146.095.094.147.221.147.354v7.355c0 .275-.223.499-.498.5l-8.578.028c-.006 0-.012 0-.018 0zm8.095-7.382-8.104.027c-.849.003-1.645.336-2.242.938s-.925 1.402-.922 2.251.336 1.646.938 2.244c.603.599 1.417.925 2.249.922l8.08-.027v-6.355z" fill="#63312d"/><path d="m49.823 7.498-5.023-.74-1.572 10.674 16.527 2.437c.433-6.036-3.848-11.475-9.932-12.371z" fill="#db785a"/><path d="m59.755 20.369c-.024 0-.049-.002-.073-.005l-16.527-2.437c-.272-.04-.462-.294-.422-.567l1.572-10.674c.041-.273.292-.465.568-.422l5.023.739c6.261.922 10.811 6.59 10.357 12.902-.011.139-.077.267-.187.354-.087.072-.198.11-.311.11zm-15.96-3.358 15.487 2.283c.129-5.574-3.964-10.481-9.532-11.302l-4.528-.667z" fill="#63312d"/><path d="m54.645 20.005c-.939 6.377-6.869 10.786-13.246 9.847-6.378-.94-10.787-6.869-9.848-13.248.939-6.377 6.871-10.785 13.248-9.846 6.378.94 10.786 6.869 9.846 13.247z" fill="#f9dd9d"/><path d="m43.107 30.478c-.588 0-1.183-.042-1.781-.131-6.64-.978-11.247-7.176-10.27-13.815.979-6.64 7.168-11.246 13.816-10.268 6.639.978 11.245 7.175 10.268 13.814-.89 6.042-6.1 10.4-12.033 10.4zm-.015-23.345c-5.446 0-10.229 4-11.045 9.544-.898 6.094 3.33 11.783 9.426 12.681 6.094.9 11.78-3.33 12.678-9.425.898-6.094-3.329-11.782-9.424-12.68-.549-.081-1.096-.12-1.635-.12z" fill="#63312d"/><path d="m44.8 6.758-12.887-1.897-.787 5.336c-.434 2.947 1.603 5.689 4.552 6.123l9.592 1.413 2.812-2.682 1.918 3.378 4.729.697c.433-6.035-3.847-11.472-9.929-12.368z" fill="#f9a287"/><path d="m37.782 16.563c-2.948-.434-4.984-3.176-4.551-6.123l.775-5.271-2.094-.308-.787 5.336c-.434 2.947 1.603 5.689 4.552 6.123l9.592 1.413.061-.058z" fill="#ffc8bb"/><path d="m54.729 19.626c-.024 0-.049-.002-.073-.005l-4.729-.697c-.152-.022-.285-.114-.361-.248l-1.603-2.821-2.349 2.24c-.112.106-.267.152-.418.133l-9.592-1.413c-1.558-.229-2.933-1.051-3.872-2.315s-1.33-2.817-1.102-4.375l.787-5.336c.041-.273.292-.462.568-.422l12.886 1.896.001.001c6.259.921 10.808 6.587 10.355 12.898-.01.139-.077.267-.186.354-.088.072-.198.11-.312.11zm-4.415-1.656 3.941.581c.129-5.573-3.963-10.479-9.529-11.298l-12.391-1.825-.714 4.841c-.19 1.293.134 2.584.914 3.633s1.922 1.732 3.215 1.922l9.351 1.377 2.636-2.513c.111-.106.265-.154.418-.133.152.022.285.114.361.248z" fill="#63312d"/><path d="m37.705 24.773c-.192 1.27.681 2.455 1.951 2.646 1.27.193 2.454-.681 2.646-1.95.193-1.27-.682-2.455-1.949-2.647-1.271-.192-2.456.68-2.648 1.951z" fill="#f8f3f3"/><path d="m40.012 27.946c-.143 0-.287-.011-.431-.033-.746-.112-1.403-.509-1.852-1.116-.447-.607-.632-1.353-.519-2.099.232-1.54 1.685-2.599 3.216-2.371.746.113 1.403.51 1.851 1.118s.632 1.354.519 2.1c-.112.746-.509 1.404-1.117 1.852-.49.36-1.07.549-1.667.549zm-.008-4.651c-.887 0-1.668.649-1.805 1.552-.073.482.046.964.335 1.356.29.393.715.649 1.196.721.483.071.963-.045 1.355-.334.393-.289.648-.714.722-1.196.073-.482-.046-.964-.335-1.356s-.714-.649-1.195-.722c-.091-.014-.182-.021-.273-.021z" fill="#63312d"/><path d="m60.82 41.156c0-6.201-5.026-11.228-11.226-11.228h-8.366c-6.203 0-11.229 5.026-11.229 11.228l.029 17.983h25.556 5.25z" fill="#52b8d9"/><path d="m44.343 29.928h-3.114c-6.203 0-11.229 5.026-11.229 11.228l.029 17.983h25.556l-.015-17.983c0-6.201-5.026-11.228-11.227-11.228z" fill="#82d9ff"/><path d="m42.949 30h-1.749c-6.203 0-11.229 4.921-11.229 11.122l.029 17.878h1.75l-.029-17.878c0-6.201 5.027-11.122 11.228-11.122z" fill="#caf4ff"/><path d="m41.228 29.928c-1.439 0-2.81.28-4.075.774 1.176 1.294 2.861 2.115 4.748 2.115h1.787c1.885 0 3.567-.818 4.744-2.109-1.268-.497-2.646-.779-4.09-.779h-3.114z" fill="#f9dd9d"/><g fill="#63312d"><path d="m43.688 33.317h-1.787c-1.937 0-3.802-.831-5.118-2.279-.11-.122-.154-.291-.116-.451.037-.16.151-.292.305-.352 1.374-.536 2.807-.808 4.257-.808h3.114c1.458 0 2.896.274 4.272.814.153.06.267.191.305.352.037.16-.007.329-.118.45-1.317 1.446-3.18 2.274-5.114 2.274zm-5.607-2.41c1.068.915 2.399 1.41 3.82 1.41h1.787c1.418 0 2.748-.494 3.816-1.406-1.029-.321-2.09-.483-3.162-.483h-3.114c-1.065 0-2.121.161-3.147.479z"/><path d="m55.584 59.639h-25.556c-.275 0-.5-.223-.5-.499l-.029-17.983c0-6.468 5.262-11.729 11.729-11.729h3.114c6.467 0 11.728 5.261 11.728 11.728l.014 17.983c0 .133-.053.26-.146.354s-.221.146-.354.146zm-25.057-1h24.557l-.014-17.483c0-5.916-4.813-10.728-10.728-10.728h-3.114c-5.916 0-10.729 4.813-10.729 10.728z"/><path d="m60.834 59.639h-30.806c-.275 0-.5-.223-.5-.499l-.029-17.983c0-6.468 5.262-11.729 11.729-11.729h8.366c6.466 0 11.726 5.261 11.726 11.728l.014 17.983c0 .133-.053.26-.146.354s-.221.146-.354.146zm-30.307-1h29.807l-.014-17.483c0-5.916-4.812-10.728-10.726-10.728h-8.366c-5.916 0-10.729 4.813-10.729 10.728z"/></g><path d="m20.747 36.987 3.472.969 3.385-7.599-3.472-.968z" fill="#f9a287"/><path d="m10.536 24.653c-.227.813.252 1.664 1.064 1.89l2.902.811c.813.225 1.662-.255 1.888-1.066l1.204-4.313c.227-.813-.254-1.663-1.066-1.889l-2.9-.809c-.813-.227-1.663.253-1.889 1.065z" fill="#82d9ff"/><path d="m14.911 27.909c-.179 0-.36-.024-.541-.074l-2.904-.811c-.521-.145-.955-.486-1.223-.96s-.334-1.023-.188-1.545l1.203-4.312c.145-.521.485-.956.959-1.223.475-.268 1.024-.335 1.546-.189l2.9.81c.521.145.956.485 1.224.96.268.474.335 1.023.189 1.544l-1.204 4.313c-.249.897-1.069 1.487-1.961 1.487zm-3.893-3.122c-.073.265-.039.544.097.786.136.241.356.415.62.488l2.903.811c.552.152 1.119-.171 1.271-.719l1.204-4.313c.073-.264.039-.542-.098-.784-.136-.242-.356-.415-.621-.488l-2.901-.81c-.266-.074-.544-.04-.784.097-.241.136-.415.357-.488.621z" fill="#63312d"/><path d="m24.219 38.456c-.045 0-.09-.006-.135-.019l-3.472-.969c-.14-.039-.256-.137-.317-.269-.063-.131-.063-.284-.005-.417l3.385-7.598c.101-.225.354-.345.591-.278l3.473.968c.141.039.257.137.318.269.063.131.063.284.005.417l-3.386 7.599c-.082.184-.264.297-.457.297zm-2.78-1.795 2.498.697 2.975-6.675-2.499-.696z" fill="#63312d"/><path d="m17.56 13.889.369.103c.813.226 1.293 1.077 1.066 1.89l-4.558 16.339c-.226.813-1.078 1.293-1.89 1.065l-.369-.103c-.813-.226-1.293-1.075-1.066-1.888l4.557-16.339c.227-.813 1.077-1.292 1.891-1.067z" fill="#f8f3f3"/><path d="m12.96 33.844c-.183 0-.366-.025-.547-.076l-.369-.104c-.521-.145-.956-.485-1.224-.96-.268-.474-.335-1.022-.189-1.543l4.557-16.339c.302-1.08 1.423-1.714 2.506-1.415h.001l.369.104c.521.145.955.485 1.224.96.268.475.335 1.023.189 1.545l-4.558 16.339c-.145.521-.486.956-.961 1.224-.311.175-.652.265-.998.265zm4.189-19.511c-.453 0-.871.301-.999.758l-4.556 16.339c-.073.264-.039.542.098.783.136.242.356.415.621.488l.37.104c.262.074.542.04.784-.097s.416-.357.489-.621l4.558-16.339c.073-.264.039-.543-.098-.785s-.357-.415-.621-.488l-.369-.104c-.092-.026-.185-.038-.277-.038z" fill="#63312d"/><path d="m22.514 29.253-8.105 3.049 4.602-16.504 5.359 6.805z" fill="#f9dd9d"/><path d="m14.409 32.802c-.123 0-.244-.045-.338-.131-.139-.127-.194-.322-.144-.503l4.602-16.504c.051-.182.198-.319.383-.356.19-.035.375.034.491.181l5.359 6.805c.099.125.132.291.089.444l-1.856 6.65c-.043.154-.156.277-.306.333l-8.104 3.049c-.057.022-.116.032-.176.032zm4.819-15.92-4.072 14.605 6.945-2.613 1.72-6.162z" fill="#63312d"/><path d="m29.583 24.059c.811.225 1.293 1.074 1.066 1.888l-1.031 3.695c-.227.814-1.078 1.292-1.889 1.067l-5.216-1.456.413-1.477 1.031-3.694.412-1.479z" fill="#82d9ff"/><path d="m28.139 31.265c-.18 0-.361-.023-.543-.074l-5.217-1.457c-.128-.036-.235-.121-.301-.236-.065-.115-.082-.252-.046-.38l1.856-6.65c.035-.128.12-.236.236-.301.114-.064.252-.083.38-.046l5.213 1.456c.521.145.955.485 1.223.959.269.474.336 1.022.19 1.544l-1.03 3.696c-.25.899-1.071 1.489-1.961 1.489zm-5.009-2.359 4.734 1.322c.55.153 1.119-.171 1.272-.72l1.031-3.695c.073-.264.039-.542-.098-.784s-.357-.415-.621-.488c0 0 0 0-.001 0l-4.73-1.321z" fill="#63312d"/><path d="m8.614 26.908c.135.549-.203 1.104-.752 1.239l-3.428.837c-.549.133-1.102-.202-1.24-.752-.132-.551.203-1.104.754-1.238l3.428-.837c.549-.137 1.103.201 1.238.751z" fill="#f8f3f3"/><path d="m8.659 21.16c-.159.542-.728.85-1.271.692l-3.383-.995c-.543-.159-.855-.727-.694-1.271.159-.543.73-.854 1.27-.693l3.386.994c.542.158.853.728.692 1.273z" fill="#f8f3f3"/><path d="m11.585 16.208c-.41.39-1.059.373-1.447-.037l-2.431-2.558c-.388-.411-.372-1.061.038-1.448.411-.391 1.059-.374 1.447.037l2.43 2.559c.39.409.373 1.058-.037 1.447z" fill="#f8f3f3"/><path d="m4.196 29.512c-.686 0-1.313-.466-1.486-1.158-.197-.823.306-1.648 1.12-1.846l3.428-.837c.392-.098.8-.036 1.148.174.35.211.597.546.693.943.2.816-.301 1.644-1.118 1.844l-3.428.838c-.119.029-.239.042-.357.042zm3.426-2.886c-.041 0-.084.005-.125.016l-3.431.837c-.28.068-.453.354-.386.636.069.275.345.45.637.382l3.427-.837c.135-.033.25-.118.323-.238.072-.12.095-.261.062-.396-.034-.136-.119-.252-.239-.324-.082-.05-.174-.076-.268-.076z" fill="#63312d"/><path d="m7.675 22.393c-.142 0-.285-.02-.427-.061l-3.384-.996c-.392-.115-.716-.375-.91-.733-.195-.357-.238-.769-.123-1.16.114-.39.375-.713.733-.908.358-.196.771-.238 1.158-.123l3.384.994c.392.115.714.375.909.733s.239.771.123 1.162c-.194.662-.804 1.092-1.463 1.092zm-3.385-3.043c-.085 0-.17.021-.248.063-.123.067-.212.178-.252.313s-.024.276.042.398c.067.124.179.213.313.252l3.383.996c.282.081.569-.077.651-.354.04-.135.025-.277-.042-.4s-.178-.212-.313-.251l-3.386-.994c-.048-.016-.098-.023-.148-.023z" fill="#63312d"/><path d="m10.881 16.989c-.014 0-.027 0-.041 0-.407-.011-.785-.179-1.065-.475l-2.43-2.557c-.579-.613-.553-1.58.057-2.156.295-.28.653-.423 1.091-.418.406.011.784.18 1.063.476l2.429 2.558c.281.295.43.683.419 1.09s-.18.785-.475 1.064c-.285.27-.657.418-1.048.418zm-2.43-4.607c-.135 0-.263.051-.361.145-.21.199-.219.532-.019.743l2.429 2.557c.097.102.227.159.366.163.11.006.272-.047.374-.144h.001c.101-.096.159-.226.162-.365.004-.14-.047-.273-.144-.375l-2.43-2.559c-.097-.102-.227-.16-.365-.164-.004-.001-.009-.001-.013-.001z" fill="#63312d"/><path d="m37.229 53.761c2.115.228 4.318-.35 6.098-1.789l14.972-12.102c1.579-1.278 1.825-3.593.548-5.174-1.276-1.579-3.593-1.824-5.172-.547l-14.972 12.103c-.39.316-.986.254-1.301-.138l-10.489-12.932c-1.277-1.578-3.594-1.82-5.172-.541-1.576 1.279-1.82 3.595-.541 5.173l10.487 12.935c1.431 1.763 3.445 2.784 5.542 3.012z" fill="#f9dd9d"/><path d="m33.687 50.749-10.487-12.935c-1.279-1.578-1.035-3.894.541-5.173.397-.321.841-.547 1.303-.679-1.107-.308-2.342-.101-3.303.679-1.576 1.279-1.82 3.595-.541 5.173l10.487 12.935c1.431 1.764 3.444 2.784 5.542 3.013.624.067 1.254.056 1.881-.019-2.054-.254-4.019-1.265-5.423-2.994z" fill="#ffeecf"/><path d="m38.14 54.31c-.32 0-.642-.017-.964-.052-2.324-.253-4.411-1.388-5.877-3.195l-10.487-12.934c-1.449-1.789-1.174-4.424.614-5.876.867-.703 1.95-1.028 3.066-.91 1.109.116 2.107.658 2.81 1.525l10.489 12.932c.069.086.17.14.285.152.114.012.228-.019.312-.087l14.972-12.104c.868-.702 1.96-1.022 3.066-.906 1.11.117 2.107.66 2.809 1.527 1.447 1.792 1.168 4.428-.622 5.877l-14.971 12.102c-1.574 1.273-3.498 1.949-5.502 1.949zm-.857-1.046c2.083.225 4.114-.373 5.729-1.681l14.972-12.102c1.362-1.103 1.574-3.108.474-4.471-.533-.66-1.292-1.073-2.137-1.162-.845-.093-1.672.155-2.332.689l-14.971 12.104c-.292.237-.662.344-1.047.305-.382-.041-.723-.225-.958-.519l-10.489-12.93c-.533-.66-1.292-1.071-2.137-1.16-.843-.087-1.672.158-2.332.692-1.36 1.104-1.569 3.109-.467 4.47l10.487 12.935c1.299 1.601 3.149 2.606 5.208 2.83z" fill="#63312d"/><path d="m49.476 47c-1.537-1.91-3.074-3.821-4.609-5.73l8.809-7.12c1.579-1.277 3.896-1.032 5.172.547 1.277 1.581 1.031 3.896-.548 5.174z" fill="#f9a287"/><path d="m49.476 47.5c-.018 0-.035-.001-.054-.003-.132-.014-.253-.08-.336-.184l-4.609-5.73c-.173-.215-.139-.529.075-.702l8.809-7.12c.868-.702 1.96-1.022 3.066-.906 1.11.117 2.107.66 2.809 1.527 1.447 1.792 1.168 4.428-.622 5.877l-8.823 7.13c-.091.072-.201.111-.315.111zm-3.908-6.155 3.982 4.951 8.434-6.814c1.362-1.103 1.574-3.108.474-4.471-.533-.66-1.292-1.073-2.137-1.162-.845-.093-1.672.155-2.332.689z" fill="#63312d"/></svg>